<svg id="Grupo_28872" data-name="Grupo 28872" xmlns="http://www.w3.org/2000/svg" width="129.295" height="128.573" viewBox="0 0 129.295 128.573">
  <g id="Grupo_28841" data-name="Grupo 28841" transform="translate(89.131 11.528)">
    <g id="Grupo_28840" data-name="Grupo 28840">
      <path id="Trazado_40217" data-name="Trazado 40217" d="M1113.969,1723.618a1.345,1.345,0,0,1-1.319-1.611l.1-.479,4.776-30.263a1.346,1.346,0,0,1,1.329-1.136h14.364a1.346,1.346,0,0,1,1.346,1.345,35.383,35.383,0,0,1-20.005,32.009A1.349,1.349,0,0,1,1113.969,1723.618Zm6.036-30.8-4.257,26.97a32.661,32.661,0,0,0,16.1-26.97Z" transform="translate(-1112.624 -1690.128)" fill="#193540"/>
    </g>
  </g>
  <g id="Grupo_28843" data-name="Grupo 28843" transform="translate(18.48 11.528)">
    <g id="Grupo_28842" data-name="Grupo 28842">
      <path id="Trazado_40218" data-name="Trazado 40218" d="M1038.7,1723.618a1.345,1.345,0,0,1-.591-.136,35.384,35.384,0,0,1-20.006-32.009,1.346,1.346,0,0,1,1.345-1.345h14.365a1.345,1.345,0,0,1,1.329,1.136l4.877,30.749a1.345,1.345,0,0,1-1.32,1.6Zm-17.879-30.8a32.661,32.661,0,0,0,16.1,26.971l-4.259-26.971Z" transform="translate(-1018.099 -1690.128)" fill="#193540"/>
    </g>
  </g>
  <g id="Grupo_28845" data-name="Grupo 28845" transform="translate(71.319 45.162)">
    <g id="Grupo_28844" data-name="Grupo 28844">
      <path id="Trazado_40219" data-name="Trazado 40219" d="M1090.14,1752.593a1.346,1.346,0,0,1-.608-2.547c4.723-2.391,8.56-7.823,9.773-13.839a1.346,1.346,0,0,1,2.638.532c-1.371,6.793-5.765,12.959-11.2,15.708A1.339,1.339,0,0,1,1090.14,1752.593Z" transform="translate(-1088.793 -1735.127)" fill="#193540"/>
    </g>
  </g>
  <g id="Grupo_28847" data-name="Grupo 28847" transform="translate(48.77 11.525)">
    <g id="Grupo_28846" data-name="Grupo 28846">
      <path id="Trazado_40220" data-name="Trazado 40220" d="M1090.568,1701.713a1.317,1.317,0,0,0-1.085-.915l-9.427-1.372-4.216-8.548a1.367,1.367,0,0,0-1.211-.753,1.343,1.343,0,0,0-1.2.753l-4.225,8.548-9.427,1.372a1.34,1.34,0,0,0-.744,2.287l6.825,6.655-1.614,9.391a1.355,1.355,0,0,0,1.327,1.579,1.308,1.308,0,0,0,.628-.161l8.431-4.431,8.44,4.431a1.331,1.331,0,0,0,1.417-.1,1.349,1.349,0,0,0,.529-1.319l-1.605-9.391,6.826-6.655A1.337,1.337,0,0,0,1090.568,1701.713Zm-9.543,6.592a1.319,1.319,0,0,0-.386,1.193l1.265,7.4-6.646-3.489a1.352,1.352,0,0,0-1.256,0l-6.646,3.489,1.274-7.4a1.349,1.349,0,0,0-.395-1.193l-5.373-5.238,7.436-1.085a1.335,1.335,0,0,0,1-.735l3.327-6.736,3.328,6.736a1.35,1.35,0,0,0,1.013.735l7.427,1.085Z" transform="translate(-1058.624 -1690.125)" fill="#193540"/>
    </g>
  </g>
  <g id="Grupo_28849" data-name="Grupo 28849" transform="translate(47.976 100.114)">
    <g id="Grupo_28848" data-name="Grupo 28848">
      <path id="Trazado_40221" data-name="Trazado 40221" d="M1082.783,1808.649h-17.257a7.96,7.96,0,1,0,0,15.92h17.257a7.96,7.96,0,0,0,0-15.92Zm0,13.23h-17.257a5.269,5.269,0,1,1,0-10.539h17.257a5.269,5.269,0,0,1,0,10.539Z" transform="translate(-1057.562 -1808.649)" fill="#193540"/>
    </g>
  </g>
  <g id="Grupo_28851" data-name="Grupo 28851" transform="translate(0.66 66.112)">
    <g id="Grupo_28850" data-name="Grupo 28850">
      <path id="Trazado_40222" data-name="Trazado 40222" d="M1028.209,1769.068h-20.342V1764.5a1.344,1.344,0,0,0-1.345-1.345H995.606a1.343,1.343,0,0,0-1.04,2.2l6.476,7.875-6.476,7.875a1.343,1.343,0,0,0,1.04,2.2h32.6a1.349,1.349,0,0,0,1.345-1.346v-11.543A1.349,1.349,0,0,0,1028.209,1769.068Zm-1.345,11.543H998.449l5.373-6.53a1.328,1.328,0,0,0,0-1.7l-5.373-6.53h6.727v4.565a1.349,1.349,0,0,0,1.345,1.345h20.342Z" transform="translate(-994.257 -1763.157)" fill="#193540"/>
      <path id="Trazado_40223" data-name="Trazado 40223" d="M1028.28,1772.668v8.853H999.866l5.373-6.53a1.328,1.328,0,0,0,0-1.7l-5.373-6.53h6.727v4.565a1.349,1.349,0,0,0,1.345,1.345Z" transform="translate(-995.673 -1764.066)" fill="#437795"/>
    </g>
  </g>
  <g id="Grupo_28853" data-name="Grupo 28853" transform="translate(93.997 66.112)">
    <g id="Grupo_28852" data-name="Grupo 28852">
      <path id="Trazado_40224" data-name="Trazado 40224" d="M1147.647,1773.23l6.476-7.875a1.343,1.343,0,0,0-1.04-2.2h-11.875a1.344,1.344,0,0,0-1.346,1.345v4.565h-19.382a1.344,1.344,0,0,0-1.345,1.345v11.543a1.344,1.344,0,0,0,1.345,1.346h32.6a1.343,1.343,0,0,0,1.04-2.2Zm-25.822,7.382v-8.853h19.383a1.344,1.344,0,0,0,1.345-1.345v-4.565h7.687l-5.373,6.53a1.328,1.328,0,0,0,0,1.7l5.373,6.53Z" transform="translate(-1119.134 -1763.157)" fill="#193540"/>
      <path id="Trazado_40225" data-name="Trazado 40225" d="M1145.776,1774.991l5.373,6.53h-28.414v-8.853h19.382a1.344,1.344,0,0,0,1.345-1.345v-4.565h7.687l-5.373,6.53A1.328,1.328,0,0,0,1145.776,1774.991Z" transform="translate(-1120.043 -1764.066)" fill="#437795"/>
    </g>
  </g>
  <g id="Grupo_28855" data-name="Grupo 28855" transform="translate(72.184 54.56)">
    <g id="Grupo_28854" data-name="Grupo 28854">
      <path id="Trazado_40226" data-name="Trazado 40226" d="M1133.836,1747.7H1103.4a1.351,1.351,0,0,0-1.148.646,30.076,30.076,0,0,1-11.57,11.149,1.34,1.34,0,0,0-.735,1.193v3.435a14.238,14.238,0,0,0,.242,2.628,1.347,1.347,0,0,0,1.327,1.1h42.317a1.344,1.344,0,0,0,1.345-1.345v-17.463A1.344,1.344,0,0,0,1133.836,1747.7Zm-1.345,17.463h-39.805c-.009-.134-.018-.278-.027-.413-.009-.206-.018-.421-.018-.628V1761.5a1.643,1.643,0,0,0,.17-.1q.39-.215.78-.457c.26-.152.52-.323.78-.484.179-.117.359-.242.538-.368.664-.457,1.318-.942,1.964-1.471.063-.054.135-.108.2-.162.287-.233.565-.475.834-.718a.009.009,0,0,0,.009-.009c.323-.287.646-.583.96-.888l.726-.727c.413-.431.825-.861,1.22-1.318.2-.224.395-.458.592-.691s.386-.467.574-.709.377-.475.565-.726c.556-.735,1.085-1.5,1.6-2.287h28.343Zm-39.85-3.668v.009a1.643,1.643,0,0,0,.17-.1A1.538,1.538,0,0,1,1092.641,1761.5Z" transform="translate(-1089.95 -1747.701)" fill="#193540"/>
      <path id="Trazado_40227" data-name="Trazado 40227" d="M1105.057,1751.3c-.511.789-1.04,1.552-1.6,2.287q-.269.363-.565.727c-.179.242-.377.475-.574.708s-.386.467-.592.691c-.395.458-.807.888-1.22,1.319l-.727.727c-.314.3-.637.6-.96.888a.009.009,0,0,1-.009.009c-.278.251-.556.484-.834.717-.063.054-.135.108-.2.162-.646.529-1.3,1.023-1.964,1.471-.179.125-.359.251-.538.368-.26.161-.52.332-.78.485s-.52.314-.78.457a1.654,1.654,0,0,1-.17.1v2.619c0,.206.009.422.018.628.009.143.018.278.036.413h39.8V1751.3Zm10.117,10.817a1.344,1.344,0,0,1-1.345,1.345h-6.87a1.344,1.344,0,0,1-1.345-1.345v-6.861a1.344,1.344,0,0,1,1.345-1.345h6.87a1.344,1.344,0,0,1,1.345,1.345Zm13.229,0a1.344,1.344,0,0,1-1.345,1.345h-6.87a1.344,1.344,0,0,1-1.345-1.345v-6.861a1.344,1.344,0,0,1,1.345-1.345h6.87a1.344,1.344,0,0,1,1.345,1.345Z" transform="translate(-1090.859 -1748.61)" fill="#437795"/>
    </g>
  </g>
  <g id="Grupo_28857" data-name="Grupo 28857" transform="translate(11.579 54.56)">
    <g id="Grupo_28856" data-name="Grupo 28856">
      <path id="Trazado_40228" data-name="Trazado 40228" d="M1053.963,1759.513a30.1,30.1,0,0,1-11.615-11.167,1.339,1.339,0,0,0-1.148-.646h-30.988a1.349,1.349,0,0,0-1.345,1.345v17.463a1.349,1.349,0,0,0,1.345,1.345h42.927a1.345,1.345,0,0,0,1.318-1.1,14.248,14.248,0,0,0,.242-2.628v-3.408A1.353,1.353,0,0,0,1053.963,1759.513Zm-1.955,4.61c0,.35-.018.7-.045,1.04h-40.406v-14.772h28.9c.108.17.215.341.332.5.171.26.35.52.529.771.125.2.26.377.395.556.152.215.314.421.475.637.188.251.386.5.583.745s.4.484.6.726.4.466.61.7.413.466.628.682l.583.61c.188.188.368.368.556.547.242.233.493.466.745.691s.493.448.753.664.5.431.762.628c.161.135.323.26.493.386.179.144.359.278.547.413.09.063.179.126.278.2a.009.009,0,0,1,.009.009c.242.162.475.332.726.494q.43.3.888.565c.251.152.5.3.762.448l.188.108a.672.672,0,0,0,.108.063Z" transform="translate(-1008.866 -1747.701)" fill="#193540"/>
      <path id="Trazado_40229" data-name="Trazado 40229" d="M1052.809,1762.378l-.188-.107c-.26-.144-.511-.287-.762-.449q-.444-.269-.888-.565c-.251-.161-.484-.332-.727-.493a.009.009,0,0,0-.009-.009c-.1-.072-.188-.134-.278-.2-.188-.135-.368-.269-.547-.413-.17-.126-.332-.251-.493-.386-.26-.2-.511-.413-.762-.628s-.511-.439-.753-.664-.5-.458-.745-.691c-.188-.179-.368-.359-.556-.547l-.583-.61c-.215-.215-.422-.448-.628-.682s-.412-.457-.61-.7-.4-.484-.6-.726-.395-.493-.583-.745c-.161-.215-.323-.421-.475-.637-.135-.179-.269-.359-.395-.556-.179-.251-.359-.511-.529-.771-.117-.162-.224-.332-.332-.5h-28.9v14.772h40.406c.027-.341.045-.691.045-1.041v-2.592A.639.639,0,0,1,1052.809,1762.378Zm-26.486-.511a1.349,1.349,0,0,1-1.345,1.345h-6.871a1.355,1.355,0,0,1-1.345-1.345V1755a1.349,1.349,0,0,1,1.345-1.345h6.871a1.344,1.344,0,0,1,1.345,1.345Zm13.229,0a1.349,1.349,0,0,1-1.345,1.345h-6.87a1.355,1.355,0,0,1-1.345-1.345V1755a1.349,1.349,0,0,1,1.345-1.345h6.87a1.343,1.343,0,0,1,1.345,1.345Z" transform="translate(-1009.775 -1748.61)" fill="#437795"/>
    </g>
  </g>
  <g id="Grupo_28859" data-name="Grupo 28859" transform="translate(44.039 66.205)">
    <g id="Grupo_28858" data-name="Grupo 28858">
      <path id="Trazado_40230" data-name="Trazado 40230" d="M1092.431,1778.508a8.684,8.684,0,0,1-5.866-2.35,11,11,0,0,1-3.238-5.956,10.922,10.922,0,0,1-.144-1.1c-.018-.135-.027-.269-.036-.413-.009-.206-.018-.422-.018-.628v-3.435a1.344,1.344,0,0,0-1.955-1.193,17.05,17.05,0,0,1-16.243.018,1.377,1.377,0,0,0-1.318.054,1.362,1.362,0,0,0-.637,1.148v3.408c0,.35-.018.7-.045,1.04a10.915,10.915,0,0,1-.152,1.1,10.335,10.335,0,0,1-.422,1.588,9.438,9.438,0,0,1-8.718,6.718,1.344,1.344,0,0,0-1.345,1.345v7a1.344,1.344,0,0,0,1.345,1.345h38.792a1.349,1.349,0,0,0,1.345-1.345v-7A1.349,1.349,0,0,0,1092.431,1778.508Zm-37.446,7v-4.386c5.112-.61,9.4-4.808,10.44-10.431a14.258,14.258,0,0,0,.242-2.628v-1.327c.3.125.619.242.924.341s.61.206.915.3.583.171.87.242a1.6,1.6,0,0,0,.2.045c.125.036.26.063.385.09a2.9,2.9,0,0,0,.386.081c.314.063.619.117.924.162.233.036.457.072.691.09.448.054.915.09,1.363.108.35.009.7.009,1.049.009a2.163,2.163,0,0,0,.341-.009q.7-.027,1.4-.108c.233-.018.466-.054.7-.09.305-.045.619-.1.924-.162s.619-.125.924-.206.619-.17.933-.26c.421-.126.843-.26,1.265-.422.2-.072.386-.152.583-.224v1.345a14.237,14.237,0,0,0,.242,2.628c1.04,5.606,5.3,9.794,10.4,10.431v4.386Z" transform="translate(-1052.294 -1763.282)" fill="#193540"/>
    </g>
  </g>
  <g id="Grupo_28861" data-name="Grupo 28861" transform="translate(31.026 0)">
    <g id="Grupo_28860" data-name="Grupo 28860">
      <path id="Trazado_40231" data-name="Trazado 40231" d="M1102.062,1675.171a1.342,1.342,0,0,0-1.022-.466h-64.811a1.337,1.337,0,0,0-1.328,1.552l1.578,9.974.422,2.691,4.251,26.961v.009h.009l.35,2.242c.018.108.045.224.072.332l.036.179c.045.215.09.422.135.637a38.284,38.284,0,0,0,3.7,9.983c.359.691.754,1.381,1.166,2.054.135.215.269.431.4.637.108.17.215.341.332.5.17.26.35.52.529.771.126.2.26.377.395.556.152.215.314.422.475.637.188.251.386.5.583.745s.395.484.6.726.4.466.61.7.413.466.628.682l.583.61c.188.188.368.368.556.547.242.233.493.466.745.691s.493.448.753.664.5.431.762.628c.161.135.323.26.493.386.179.143.359.278.547.413.09.063.179.126.278.2a.009.009,0,0,1,.009.009c.242.161.475.332.726.493q.431.3.888.565c.251.153.5.305.762.449l.188.108.108.054v.009c.242.135.493.26.744.386.646.323,1.292.619,1.946.879.3.125.619.242.924.341s.61.206.915.3.583.171.87.242a1.574,1.574,0,0,0,.2.045c.125.036.26.063.386.09a2.933,2.933,0,0,0,.386.081c.314.063.619.117.924.162.233.036.457.072.691.089.448.054.915.09,1.363.108.242.009.475.018.709.018.117,0,.224,0,.341-.009a2.164,2.164,0,0,0,.341-.009q.7-.027,1.4-.108c.233-.018.466-.054.7-.089.3-.045.619-.1.924-.162s.619-.125.924-.206.619-.17.933-.26c.422-.126.843-.26,1.265-.422.2-.072.386-.152.583-.224.655-.26,1.3-.556,1.955-.888.251-.126.493-.251.736-.395a1.592,1.592,0,0,0,.17-.09q.39-.215.78-.457c.26-.153.52-.323.78-.484.179-.117.359-.242.538-.368.664-.458,1.318-.942,1.964-1.471.063-.054.135-.108.2-.162.287-.233.565-.475.834-.717a.009.009,0,0,0,.009-.009c.323-.287.646-.583.96-.888l.727-.727c.413-.431.825-.861,1.22-1.318.2-.224.395-.457.592-.691s.386-.466.574-.708.377-.475.565-.727c.556-.735,1.085-1.5,1.6-2.287.135-.206.269-.422.4-.637.413-.673.807-1.363,1.166-2.054a38.271,38.271,0,0,0,3.7-9.983c.045-.215.09-.422.135-.637l4.718-29.724.422-2.691,1.579-9.974A1.336,1.336,0,0,0,1102.062,1675.171Zm-8.942,42.46-.108.484v.027a.033.033,0,0,1-.009.027,36.018,36.018,0,0,1-4.655,11.74,30.073,30.073,0,0,1-11.57,11.149,17.051,17.051,0,0,1-16.243.018,30.1,30.1,0,0,1-11.615-11.167,35.845,35.845,0,0,1-4.664-11.794v-.009l-6.449-40.711h61.663l-1.57,9.938Z" transform="translate(-1034.884 -1674.705)" fill="#193540"/>
      <path id="Trazado_40232" data-name="Trazado 40232" d="M1082.071,1710.981l1.265,7.4-6.646-3.489a1.352,1.352,0,0,0-1.256,0l-6.646,3.489,1.274-7.4a1.349,1.349,0,0,0-.395-1.193l-5.373-5.238,7.436-1.085a1.335,1.335,0,0,0,1-.735l3.327-6.736,3.328,6.736a1.349,1.349,0,0,0,1.013.735l7.427,1.085-5.373,5.238A1.319,1.319,0,0,0,1082.071,1710.981Z" transform="translate(-1042.312 -1680.082)" fill="#ffc23b"/>
    </g>
  </g>
  <g id="Grupo_28863" data-name="Grupo 28863" transform="translate(18.566 59.6)">
    <g id="Grupo_28862" data-name="Grupo 28862">
      <path id="Trazado_40233" data-name="Trazado 40233" d="M1026.43,1754.445h-6.87a1.349,1.349,0,0,0-1.345,1.345v6.87a1.355,1.355,0,0,0,1.345,1.345h6.87a1.349,1.349,0,0,0,1.345-1.345v-6.87A1.344,1.344,0,0,0,1026.43,1754.445Zm-1.345,6.87h-4.18v-4.18h4.18Z" transform="translate(-1018.214 -1754.445)" fill="#193540"/>
    </g>
  </g>
  <g id="Grupo_28865" data-name="Grupo 28865" transform="translate(31.796 59.6)">
    <g id="Grupo_28864" data-name="Grupo 28864">
      <path id="Trazado_40234" data-name="Trazado 40234" d="M1044.13,1754.445h-6.87a1.349,1.349,0,0,0-1.345,1.345v6.87a1.355,1.355,0,0,0,1.345,1.345h6.87a1.35,1.35,0,0,0,1.345-1.345v-6.87A1.344,1.344,0,0,0,1044.13,1754.445Zm-1.345,6.87h-4.18v-4.18h4.18Z" transform="translate(-1035.914 -1754.445)" fill="#193540"/>
    </g>
  </g>
  <g id="Grupo_28867" data-name="Grupo 28867" transform="translate(86.938 59.86)">
    <g id="Grupo_28866" data-name="Grupo 28866">
      <path id="Trazado_40235" data-name="Trazado 40235" d="M1117.906,1754.793h-6.87a1.344,1.344,0,0,0-1.345,1.345V1763a1.344,1.344,0,0,0,1.345,1.345h6.87a1.344,1.344,0,0,0,1.345-1.345v-6.861A1.344,1.344,0,0,0,1117.906,1754.793Zm-1.345,6.862h-4.18v-4.171h4.18Z" transform="translate(-1109.69 -1754.793)" fill="#193540"/>
    </g>
  </g>
  <g id="Grupo_28869" data-name="Grupo 28869" transform="translate(100.168 59.86)">
    <g id="Grupo_28868" data-name="Grupo 28868">
      <path id="Trazado_40236" data-name="Trazado 40236" d="M1135.606,1754.793h-6.87a1.344,1.344,0,0,0-1.345,1.345V1763a1.343,1.343,0,0,0,1.345,1.345h6.87a1.344,1.344,0,0,0,1.345-1.345v-6.861A1.344,1.344,0,0,0,1135.606,1754.793Zm-1.345,6.862h-4.18v-4.171h4.18Z" transform="translate(-1127.39 -1754.793)" fill="#193540"/>
    </g>
  </g>
  <g id="Grupo_28871" data-name="Grupo 28871" transform="translate(0 88.427)">
    <g id="Grupo_28870" data-name="Grupo 28870">
      <path id="Trazado_40237" data-name="Trazado 40237" d="M1121.194,1805.176h-19.93v-10.817a1.344,1.344,0,0,0-1.345-1.345h-84.086a1.344,1.344,0,0,0-1.345,1.345v10.817H994.719a1.349,1.349,0,0,0-1.345,1.345v25.293a1.349,1.349,0,0,0,1.345,1.345h126.475a1.349,1.349,0,0,0,1.345-1.345v-25.293A1.349,1.349,0,0,0,1121.194,1805.176Zm-1.345,25.293H996.065v-22.6h19.768a1.344,1.344,0,0,0,1.345-1.345V1795.7h81.4v10.817a1.344,1.344,0,0,0,1.345,1.345h19.93Z" transform="translate(-993.374 -1793.013)" fill="#193540"/>
      <path id="Trazado_40238" data-name="Trazado 40238" d="M1100.828,1808.775a1.344,1.344,0,0,1-1.345-1.345v-10.817h-81.4v10.817a1.344,1.344,0,0,1-1.345,1.345H996.974v22.6h123.784v-22.6Zm-33.347,12.754h-17.257a7.96,7.96,0,1,1,0-15.92h17.257a7.96,7.96,0,0,1,0,15.92Z" transform="translate(-994.283 -1793.922)" fill="#9b235c"/>
    </g>
  </g>
</svg>
