<svg xmlns="http://www.w3.org/2000/svg" width="120.216" height="91.617" viewBox="0 0 120.216 91.617">
  <g id="Grupo_28939" data-name="Grupo 28939" transform="translate(-322.199 -2507.121)">
    <g id="Grupo_28935" data-name="Grupo 28935">
      <path id="Trazado_40320" data-name="Trazado 40320" d="M355.427,2537.172v-6.059c0-6.159-3.347-11.19-7.385-11.19h-12.06c-4.036,0-7.779,5.031-7.779,11.19v6.059h4.779v-4.924c0-4.6,2-8.168,4.807-8.168h8.395c2.81,0,4.671,3.567,4.671,8.168v4.924Z" fill="#657d89" stroke="#3d4451" stroke-miterlimit="10" stroke-width="2.07"/>
      <path id="Trazado_40321" data-name="Trazado 40321" d="M354.677,2538.42H330.1c-3.719,0-6.886,2.291-6.886,5.152v20.074c0,2.86,3.17,5.119,6.886,5.119h24.576c3.719,0,6.362-2.259,6.362-5.119v-20.073C361.036,2540.714,358.4,2538.42,354.677,2538.42Z" fill="#9b235c" stroke="#3d4451" stroke-miterlimit="10" stroke-width="2.032"/>
      <path id="Trazado_40322" data-name="Trazado 40322" d="M343.994,2553.595l.97,9.353h-6.306l.97-9.529a3.645,3.645,0,0,1-1.945-3.214,4.3,4.3,0,0,1,8.57,0A4.494,4.494,0,0,1,343.994,2553.595Z" fill="#fff"/>
    </g>
    <g id="Grupo_28938" data-name="Grupo 28938">
      <ellipse id="Elipse_38" data-name="Elipse 38" cx="57.174" cy="6.437" rx="57.174" ry="6.437" transform="translate(328.068 2585.865)" fill="#657d89" opacity="0.2" style="isolation: isolate"/>
      <path id="Trazado_40323" data-name="Trazado 40323" d="M421.909,2565.245v8.12c0,3.16-8.084,5.723-18.064,5.723s-18.066-2.562-18.066-5.723v-8.12" fill="#fdc345" stroke="#3d4451" stroke-miterlimit="10" stroke-width="1.979"/>
      <ellipse id="Elipse_39" data-name="Elipse 39" cx="18.066" cy="5.289" rx="18.066" ry="5.289" transform="translate(385.778 2559.998)" fill="#fdc345" stroke="#3d4451" stroke-miterlimit="10" stroke-width="1.902"/>
      <path id="Trazado_40324" data-name="Trazado 40324" d="M417.9,2554.157v7.243c0,2.819-7.213,5.1-16.113,5.1s-16.114-2.286-16.114-5.1v-7.243" fill="#fdc345" stroke="#3d4451" stroke-miterlimit="10" stroke-width="1.765"/>
      <ellipse id="Elipse_40" data-name="Elipse 40" cx="16.113" cy="4.718" rx="16.113" ry="4.718" transform="translate(385.671 2549.478)" fill="#fdc345" stroke="#3d4451" stroke-miterlimit="10" stroke-width="1.697"/>
      <path id="Trazado_40325" data-name="Trazado 40325" d="M382.991,2563.588v7.523c0,2.928-7.493,5.3-16.737,5.3s-16.737-2.378-16.737-5.3v-7.523" fill="#fdc345" stroke="#3d4451" stroke-miterlimit="10" stroke-width="1.833"/>
      <ellipse id="Elipse_41" data-name="Elipse 41" cx="16.737" cy="4.9" rx="16.737" ry="4.9" transform="translate(349.513 2558.728)" fill="#fdc345" stroke="#3d4451" stroke-miterlimit="10" stroke-width="1.763"/>
      <path id="Trazado_40326" data-name="Trazado 40326" d="M401.8,2576.019v8.119c0,3.161-8.084,5.723-18.064,5.723s-18.066-2.561-18.066-5.723v-8.119" fill="#fdc345" stroke="#3d4451" stroke-miterlimit="10" stroke-width="1.979"/>
      <ellipse id="Elipse_42" data-name="Elipse 42" cx="18.066" cy="5.289" rx="18.066" ry="5.289" transform="translate(365.666 2570.772)" fill="#fdc345" stroke="#3d4451" stroke-miterlimit="10" stroke-width="1.902"/>
      <path id="Trazado_40327" data-name="Trazado 40327" d="M401.907,2563.077v8.119c0,3.161-8.089,5.723-18.066,5.723s-18.065-2.562-18.065-5.723v-8.119" fill="#fdc345" stroke="#3d4451" stroke-miterlimit="10" stroke-width="1.979"/>
      <ellipse id="Elipse_43" data-name="Elipse 43" cx="18.066" cy="5.289" rx="18.066" ry="5.289" transform="translate(365.776 2557.83)" fill="#fdc345" stroke="#3d4451" stroke-miterlimit="10" stroke-width="1.902"/>
      <g id="Grupo_28937" data-name="Grupo 28937">
        <ellipse id="Elipse_44" data-name="Elipse 44" cx="16.506" cy="16.566" rx="16.506" ry="16.566" transform="translate(370.941 2514.376)" fill="#fdc345"/>
        <g id="Grupo_28936" data-name="Grupo 28936">
          <path id="Trazado_40328" data-name="Trazado 40328" d="M384.932,2537.4v3.1h-2.088v-3.014a11.666,11.666,0,0,1-5.406-1.316v-3.963a8.33,8.33,0,0,0,2.473,1.245,11.5,11.5,0,0,0,2.933.658v-5.2a11.057,11.057,0,0,1-4.569-2.7,5.308,5.308,0,0,1-1.224-3.539,5.2,5.2,0,0,1,1.586-3.826,6.67,6.67,0,0,1,4.2-1.839v-2.669h2.087v2.6a10.567,10.567,0,0,1,4.506.973v3.861a10.813,10.813,0,0,0-4.506-1.487v5.42a11.481,11.481,0,0,1,4.491,2.581,4.959,4.959,0,0,1,1.361,3.512,5.056,5.056,0,0,1-1.518,3.826A7.229,7.229,0,0,1,384.932,2537.4Zm-2.088-12.515v-4.537q-1.987.357-1.988,2.074,0,1.476,1.988,2.463Zm2.088,4.835v4.333q2.046-.312,2.046-2.045,0-1.4-2.046-2.289Z" fill="#3d4451"/>
        </g>
        <circle id="Elipse_45" data-name="Elipse 45" cx="18.924" cy="18.924" r="18.924" transform="translate(364.945 2508.14)" fill="none" stroke="#3d4451" stroke-miterlimit="9.999" stroke-width="2.038"/>
        <circle id="Elipse_46" data-name="Elipse 46" cx="15.432" cy="15.432" r="15.432" transform="translate(368.442 2511.634)" fill="none" stroke="#3d4451" stroke-miterlimit="10" stroke-width="1.164"/>
      </g>
      <path id="Trazado_40329" data-name="Trazado 40329" d="M401.8,2550.161v8.119c0,3.161-8.084,5.723-18.064,5.723s-18.066-2.562-18.066-5.723v-8.119" fill="#fdc345" stroke="#3d4451" stroke-miterlimit="10" stroke-width="1.979"/>
      <ellipse id="Elipse_47" data-name="Elipse 47" cx="18.066" cy="5.289" rx="18.066" ry="5.289" transform="translate(365.666 2544.914)" fill="#fdc345" stroke="#3d4451" stroke-miterlimit="10" stroke-width="1.902"/>
      <path id="Trazado_40330" data-name="Trazado 40330" d="M401.582,2538.532v7.816c0,3.042-7.786,5.507-17.388,5.507s-17.387-2.465-17.387-5.507v-7.816" fill="#fdc345" stroke="#3d4451" stroke-miterlimit="10" stroke-width="1.905"/>
      <ellipse id="Elipse_48" data-name="Elipse 48" cx="17.388" cy="5.091" rx="17.388" ry="5.091" transform="translate(366.807 2533.482)" fill="#fdc345" stroke="#3d4451" stroke-miterlimit="10" stroke-width="1.831"/>
      <path id="Trazado_40331" data-name="Trazado 40331" d="M372.511,2578.857v8.56c0,3.329-8.527,6.034-19.046,6.034s-19.045-2.7-19.045-6.034v-8.56" fill="#fdc345" stroke="#3d4451" stroke-miterlimit="10" stroke-width="2.086"/>
      <ellipse id="Elipse_49" data-name="Elipse 49" cx="19.046" cy="5.576" rx="19.046" ry="5.576" transform="translate(334.42 2573.325)" fill="#fdc345" stroke="#3d4451" stroke-miterlimit="10" stroke-width="2.005"/>
      <path id="Trazado_40332" data-name="Trazado 40332" d="M434.359,2578.653v8.117c0,3.161-8.085,5.723-18.065,5.723s-18.065-2.562-18.065-5.723v-8.12" fill="#fdc345" stroke="#3d4451" stroke-miterlimit="10" stroke-width="1.979"/>
      <ellipse id="Elipse_50" data-name="Elipse 50" cx="18.066" cy="5.289" rx="18.066" ry="5.289" transform="translate(398.229 2573.406)" fill="#fdc345" stroke="#3d4451" stroke-miterlimit="10" stroke-width="1.902"/>
    </g>
  </g>
</svg>
