<svg xmlns="http://www.w3.org/2000/svg" width="8.151" height="11.268" viewBox="0 0 8.151 11.268">
  <path id="Trazado_40143" data-name="Trazado 40143" d="M1049.267,537.7a.559.559,0,0,1-.163.394l-5.077,5.078a.556.556,0,0,1-.787,0l-1.961-1.958a.575.575,0,0,1,0-.787l2.727-2.727-2.726-2.725a.556.556,0,0,1-.163-.394h0a.558.558,0,0,1,.163-.394l1.961-1.957a.555.555,0,0,1,.786,0l5.077,5.076A.551.551,0,0,1,1049.267,537.7ZM1043.632,542l4.291-4.291-4.291-4.29-1.173,1.171,2.725,2.726a.572.572,0,0,1,0,.787l-2.727,2.726Z" transform="translate(-1041.116 -532.071)" fill="#9b235c"/>
</svg>
