<svg xmlns="http://www.w3.org/2000/svg" width="139" height="138.302" viewBox="0 0 139 138.302">
  <g id="Grupo_28904" data-name="Grupo 28904" transform="translate(-381.375 -1909.56)">
    <g id="Grupo_28886" data-name="Grupo 28886" transform="translate(427.858 1918.293)">
      <path id="Trazado_40257" data-name="Trazado 40257" d="M486.594,1921.374c-.182-.01-.374-.01-.557-.01h-.394c-.192,0-.374,0-.557.01a41.836,41.836,0,0,0,0,83.651c.183.009.365.009.557.009h.394c.183,0,.375,0,.557-.009a41.829,41.829,0,0,0,0-83.651Zm8.7,79.664a38.8,38.8,0,0,1-7.819,1.085c-.326.01-.644.019-.971.019-.153.01-.317.01-.471.01h-.394c-.154,0-.317,0-.471-.01-.192,0-.385-.01-.576-.019a38.251,38.251,0,0,1-8.377-1.23,39.009,39.009,0,0,1-29.107-36.253q-.029-.721-.028-1.44t.028-1.441A39.009,39.009,0,0,1,476.22,1925.5a38.244,38.244,0,0,1,8.377-1.23c.192-.01.384-.019.576-.019.154-.01.317-.01.471-.01h.394c.154,0,.317,0,.471.01.327,0,.644.01.971.019a38.922,38.922,0,0,1,37.483,37.483q.029.72.029,1.441t-.029,1.44A39.021,39.021,0,0,1,495.3,2001.038Z" transform="translate(-444.202 -1921.364)" fill="#193540"/>
      <path id="Trazado_40258" data-name="Trazado 40258" d="M477.243,2016.11a39.009,39.009,0,0,1-29.107-36.253h17.176C465.571,1996.024,470.307,2009.6,477.243,2016.11Z" transform="translate(-445.225 -1936.581)" fill="#437795"/>
      <path id="Trazado_40259" data-name="Trazado 40259" d="M492.673,1979.857V2017.3c-9.328-1.162-17.071-17.7-17.426-37.445Z" transform="translate(-452.278 -1936.581)" fill="#437795"/>
      <path id="Trazado_40260" data-name="Trazado 40260" d="M519.726,1979.857c-.346,19.462-7.876,35.811-17.031,37.387v-37.387Z" transform="translate(-459.419 -1936.581)" fill="#437795"/>
      <path id="Trazado_40261" data-name="Trazado 40261" d="M542.928,1979.857a39.021,39.021,0,0,1-29.664,36.4c7.022-6.446,11.835-20.105,12.094-36.4Z" transform="translate(-462.169 -1936.581)" fill="#437795"/>
      <path id="Trazado_40262" data-name="Trazado 40262" d="M542.928,1963.164H525.358c-.26-16.292-5.072-29.952-12.094-36.4A39.021,39.021,0,0,1,542.928,1963.164Z" transform="translate(-462.169 -1922.769)" fill="#437795"/>
      <path id="Trazado_40263" data-name="Trazado 40263" d="M519.726,1962.816H502.7v-37.387C511.85,1927,519.381,1943.354,519.726,1962.816Z" transform="translate(-459.419 -1922.422)" fill="#437795"/>
      <path id="Trazado_40264" data-name="Trazado 40264" d="M492.673,1925.351V1962.8H475.247C475.6,1943.055,483.345,1926.513,492.673,1925.351Z" transform="translate(-452.278 -1922.401)" fill="#437795"/>
      <path id="Trazado_40265" data-name="Trazado 40265" d="M477.243,1926.961c-6.936,6.513-11.672,20.086-11.931,36.253H448.136A39.009,39.009,0,0,1,477.243,1926.961Z" transform="translate(-445.225 -1922.82)" fill="#437795"/>
    </g>
    <g id="Grupo_28887" data-name="Grupo 28887" transform="translate(418.952 1909.56)">
      <path id="Trazado_40266" data-name="Trazado 40266" d="M479.618,2010.706a1.433,1.433,0,0,1-1.355-1.518h0a1.442,1.442,0,0,1,1.517-1.364v.01a1.427,1.427,0,0,1,1.355,1.517h0a1.432,1.432,0,0,1-1.431,1.354h-.087Zm10.067-1.854a1.436,1.436,0,0,1,1.162-1.672h0a1.442,1.442,0,0,1,1.671,1.173h0a1.437,1.437,0,0,1-1.162,1.662h0a1.183,1.183,0,0,1-.259.029h0A1.448,1.448,0,0,1,489.685,2008.852Zm-21.643-.163h0a1.444,1.444,0,0,1-.98-1.787h0a1.44,1.44,0,0,1,1.8-.97h0a1.434,1.434,0,0,1,.97,1.787h0a1.438,1.438,0,0,1-1.383,1.027h0A1.464,1.464,0,0,1,468.042,2008.689Zm32.681-2.8a1.445,1.445,0,0,1,.749-1.9h0a1.454,1.454,0,0,1,1.893.749h0a1.449,1.449,0,0,1-.749,1.9h0a1.494,1.494,0,0,1-.567.115h0A1.444,1.444,0,0,1,500.723,2005.893Zm-43.488-1.853a1.442,1.442,0,0,1-.528-1.969h0a1.442,1.442,0,0,1,1.969-.529h0a1.443,1.443,0,0,1,.528,1.969h0a1.443,1.443,0,0,1-1.249.721h0A1.4,1.4,0,0,1,457.236,2004.04Zm53.536-3.584a1.441,1.441,0,0,1,.288-2.016h0a1.45,1.45,0,0,1,2.018.288h0a1.433,1.433,0,0,1-.3,2.018h.01a1.465,1.465,0,0,1-.865.288h0A1.429,1.429,0,0,1,510.771,2000.456Zm-62.969-3.428a1.433,1.433,0,0,1-.067-2.037h0a1.443,1.443,0,0,1,2.037-.058h0a1.432,1.432,0,0,1,.067,2.036h0a1.461,1.461,0,0,1-1.048.451h0A1.453,1.453,0,0,1,447.8,1997.027Zm71.5-4.17a1.446,1.446,0,0,1-.182-2.036h0a1.445,1.445,0,0,1,2.036-.173h0a1.444,1.444,0,0,1,.173,2.027h0a1.458,1.458,0,0,1-1.1.519h0A1.456,1.456,0,0,1,519.3,1992.858Zm-79.077-4.822a1.438,1.438,0,0,1,.413-1.989h0a1.441,1.441,0,0,1,2,.4h0a1.453,1.453,0,0,1-.413,2h0a1.408,1.408,0,0,1-.788.24h0A1.448,1.448,0,0,1,440.223,1988.036Zm85.638-4.534a1.453,1.453,0,0,1-.643-1.941h0a1.435,1.435,0,0,1,1.94-.634h0a1.445,1.445,0,0,1,.634,1.932h0a1.445,1.445,0,0,1-1.287.8h0A1.389,1.389,0,0,1,525.862,1983.5Zm-90.941-5.956a1.453,1.453,0,0,1,.864-1.853h0a1.438,1.438,0,0,1,1.844.864h0a1.429,1.429,0,0,1-.855,1.844h0a1.446,1.446,0,0,1-.5.087h0A1.442,1.442,0,0,1,434.921,1977.546Zm95.159-4.668a1.446,1.446,0,0,1-1.067-1.739v.01a1.437,1.437,0,0,1,1.729-1.076h0a1.441,1.441,0,0,1,1.076,1.729h0a1.445,1.445,0,0,1-1.4,1.115h0A1.327,1.327,0,0,1,530.08,1972.877ZM432.2,1966.1a1.43,1.43,0,0,1,1.258-1.594h0a1.439,1.439,0,0,1,1.6,1.258h0a1.446,1.446,0,0,1-1.267,1.6h0c-.058,0-.107.009-.164.009h0A1.442,1.442,0,0,1,432.2,1966.1Zm98.079-5.974h.01v-.087h0c0-.029-.01-.067-.01-.106h0a1.453,1.453,0,0,1,1.441-1.451h0a1.439,1.439,0,0,1,1.44,1.441h0v.1h0v.1h0a1.439,1.439,0,0,1-1.44,1.44h0A1.445,1.445,0,0,1,530.281,1960.13Zm-96.83-4.18a1.444,1.444,0,0,1-1.277-1.594h.009a1.429,1.429,0,0,1,1.585-1.269h0a1.44,1.44,0,0,1,1.278,1.6h0a1.442,1.442,0,0,1-1.431,1.278h0A.816.816,0,0,1,433.451,1955.951Zm95.514-7.022a1.442,1.442,0,0,1,1.066-1.738h0a1.447,1.447,0,0,1,1.739,1.065h0A1.448,1.448,0,0,1,530.7,1950h0a1.36,1.36,0,0,1-.336.039h0A1.444,1.444,0,0,1,528.965,1948.929Zm-93.246-4.178a1.44,1.44,0,0,1-.865-1.845h0a1.431,1.431,0,0,1,1.844-.864h0a1.44,1.44,0,0,1,.864,1.844h0a1.434,1.434,0,0,1-1.355.951h0A1.474,1.474,0,0,1,435.718,1944.751Zm89.414-6.225a1.449,1.449,0,0,1,.633-1.941h0a1.458,1.458,0,0,1,1.941.633h0a1.447,1.447,0,0,1-.634,1.941h0a1.444,1.444,0,0,1-.653.154h0A1.445,1.445,0,0,1,525.132,1938.526Zm-84.6-4.14a1.443,1.443,0,0,1-.413-2h0a1.439,1.439,0,0,1,2-.414h0a1.439,1.439,0,0,1,.414,1.989h0a1.447,1.447,0,0,1-1.21.653h0A1.5,1.5,0,0,1,440.53,1934.386ZM519,1929.293a1.445,1.445,0,0,1,.173-2.035h0a1.443,1.443,0,0,1,2.026.172h0a1.426,1.426,0,0,1-.172,2.026h0a1.42,1.42,0,0,1-.932.346h0A1.438,1.438,0,0,1,519,1929.293Zm-71.4-3.89a1.442,1.442,0,0,1,.058-2.036h0a1.449,1.449,0,0,1,2.037.049h0a1.452,1.452,0,0,1-.058,2.046h0a1.455,1.455,0,0,1-.989.393h0A1.447,1.447,0,0,1,447.6,1925.4Zm63.314-3.7a1.422,1.422,0,0,1-.3-2.007h0a1.432,1.432,0,0,1,2.008-.307h0a1.441,1.441,0,0,1,.307,2.016h0a1.445,1.445,0,0,1-1.162.586h0A1.43,1.43,0,0,1,510.915,1921.705Zm-54.371-3.42a1.436,1.436,0,0,1,.519-1.97h0a1.454,1.454,0,0,1,1.97.519h0a1.454,1.454,0,0,1-.519,1.979h0a1.524,1.524,0,0,1-.72.192h0A1.432,1.432,0,0,1,456.544,1918.285Zm44.756-2.094a1.442,1.442,0,0,1-.759-1.893h0a1.43,1.43,0,0,1,1.892-.758h0a1.442,1.442,0,0,1,.759,1.892h0a1.447,1.447,0,0,1-1.325.875h0A1.459,1.459,0,0,1,501.3,1916.191Zm-34.419-2.766a1.439,1.439,0,0,1,.961-1.8h0a1.443,1.443,0,0,1,1.8.96h0a1.444,1.444,0,0,1-.961,1.8h0a1.592,1.592,0,0,1-.422.057h0A1.448,1.448,0,0,1,466.88,1913.425Zm23.785-.385a1.435,1.435,0,0,1-1.182-1.662h0a1.447,1.447,0,0,1,1.672-1.171h0a1.442,1.442,0,0,1,1.171,1.661h0a1.44,1.44,0,0,1-1.421,1.2h0A1.044,1.044,0,0,1,490.665,1913.041Zm-12.6-1.95a1.441,1.441,0,0,1,1.354-1.528h0a1.442,1.442,0,0,1,1.528,1.354h0a1.433,1.433,0,0,1-1.355,1.518h0a.266.266,0,0,1-.087.01h0A1.448,1.448,0,0,1,478.062,1911.091Z" transform="translate(-432.165 -1909.56)" fill="#193540"/>
    </g>
    <g id="Grupo_28888" data-name="Grupo 28888" transform="translate(447.925 1918.293)">
      <path id="Trazado_40267" data-name="Trazado 40267" d="M494.141,2003.593a1.432,1.432,0,0,1-1.239,1.422,1.057,1.057,0,0,1-.173.018H492.7c-.192,0-.374,0-.557-.009a13.907,13.907,0,0,1-8.866-4.131c-6.936-6.513-11.672-20.086-11.931-36.253-.019-.48-.019-.96-.019-1.44s0-.961.019-1.441c.259-16.167,4.995-29.74,11.931-36.253a13.905,13.905,0,0,1,8.866-4.131c.183-.01.365-.01.557-.01h.029a1.072,1.072,0,0,1,.173.019,1.442,1.442,0,0,1-.2,2.863c-.154,0-.317,0-.471.01q-.289.014-.576.058c-9.328,1.162-17.071,17.7-17.426,37.445-.019.48-.019.96-.019,1.441s0,.96.019,1.44c.355,19.741,8.1,36.282,17.426,37.444q.287.043.576.058c.154.01.317.01.471.01a1.45,1.45,0,0,1,.2.019A1.432,1.432,0,0,1,494.141,2003.593Z" transform="translate(-471.326 -1921.364)" fill="#193540"/>
    </g>
    <g id="Grupo_28889" data-name="Grupo 28889" transform="translate(468.252 1918.293)">
      <path id="Trazado_40268" data-name="Trazado 40268" d="M521.614,1963.2c0,.48,0,.96-.018,1.44-.26,16.292-5.072,29.952-12.094,36.4a13.821,13.821,0,0,1-8.7,3.987c-.182.009-.374.009-.557.009a.644.644,0,0,1-.192-.018.733.733,0,0,1-.212-.049.415.415,0,0,1-.182-.067.623.623,0,0,1-.212-.106c-.01,0-.01-.01-.019-.019a.633.633,0,0,1-.173-.144c-.01,0-.029-.01-.038-.039a.783.783,0,0,1-.144-.163,1.133,1.133,0,0,1-.153-.279.609.609,0,0,1-.058-.173,1.28,1.28,0,0,1-.058-.384,1.425,1.425,0,0,1,1.249-1.422.617.617,0,0,1,.192-.019c.154,0,.317,0,.471-.01a8.236,8.236,0,0,0,.971-.115c9.155-1.576,16.686-17.925,17.031-37.387.019-.48.019-.96.019-1.44s0-.961-.019-1.441c-.346-19.462-7.876-35.812-17.031-37.387a8.085,8.085,0,0,0-.971-.115c-.153-.01-.317-.01-.471-.01a.62.62,0,0,1-.192-.019,1.425,1.425,0,0,1-1.249-1.422,1.281,1.281,0,0,1,.058-.384.611.611,0,0,1,.058-.173.65.65,0,0,1,.124-.23.082.082,0,0,1,.029-.048.766.766,0,0,1,.144-.163c.01-.029.029-.039.038-.039a.629.629,0,0,1,.173-.144c.01-.01.01-.019.019-.019a.611.611,0,0,1,.212-.105.4.4,0,0,1,.182-.067.754.754,0,0,1,.212-.049.617.617,0,0,1,.192-.019c.183,0,.375,0,.557.01a13.819,13.819,0,0,1,8.7,3.987c7.022,6.446,11.835,20.105,12.094,36.4C521.614,1962.238,521.614,1962.719,521.614,1963.2Z" transform="translate(-498.8 -1921.364)" fill="#193540"/>
    </g>
    <g id="Grupo_28890" data-name="Grupo 28890" transform="translate(468.252 1918.293)">
      <path id="Trazado_40269" data-name="Trazado 40269" d="M501.682,1922.805v80.788a1.439,1.439,0,0,1-1.441,1.44.644.644,0,0,1-.192-.018.733.733,0,0,1-.212-.049.415.415,0,0,1-.182-.067.623.623,0,0,1-.212-.106c-.01,0-.01-.01-.019-.019a.633.633,0,0,1-.173-.144c-.01,0-.029-.01-.038-.039a.783.783,0,0,1-.144-.163,1.133,1.133,0,0,1-.153-.279.609.609,0,0,1-.058-.173,1.28,1.28,0,0,1-.058-.384v-80.788a1.281,1.281,0,0,1,.058-.384.611.611,0,0,1,.058-.173.65.65,0,0,1,.124-.23.082.082,0,0,1,.029-.048.766.766,0,0,1,.144-.163c.01-.029.029-.039.038-.039a.629.629,0,0,1,.173-.144c.01-.01.01-.019.019-.019a.611.611,0,0,1,.212-.105.4.4,0,0,1,.182-.067.754.754,0,0,1,.212-.049.617.617,0,0,1,.192-.019A1.439,1.439,0,0,1,501.682,1922.805Z" transform="translate(-498.8 -1921.364)" fill="#193540"/>
    </g>
    <g id="Grupo_28891" data-name="Grupo 28891" transform="translate(427.858 1958.688)">
      <path id="Trazado_40270" data-name="Trazado 40270" d="M527.872,1977.4a1.439,1.439,0,0,1-1.44,1.441H445.643a1.441,1.441,0,1,1,0-2.882h80.788A1.439,1.439,0,0,1,527.872,1977.4Z" transform="translate(-444.202 -1975.962)" fill="#193540"/>
    </g>
    <g id="Grupo_28892" data-name="Grupo 28892" transform="translate(381.845 2024.884)">
      <path id="Trazado_40271" data-name="Trazado 40271" d="M519.1,2065.434H460.194a1.445,1.445,0,0,0-1.44,1.441v4.784c0,.625-.73,1.162-1.594,1.162H420.434c-.865,0-1.585-.538-1.585-1.162v-4.784a1.445,1.445,0,0,0-1.037-1.374,1.114,1.114,0,0,0-.4-.067H383.451a1.445,1.445,0,0,0-1.44,1.441v20.1a1.445,1.445,0,0,0,1.44,1.441H519.1a1.452,1.452,0,0,0,1.441-1.441v-20.1A1.452,1.452,0,0,0,519.1,2065.434Zm-1.441,20.1H384.892v-17.214h31.075v3.344a4.274,4.274,0,0,0,4.467,4.044h36.725a4.282,4.282,0,0,0,4.476-4.044v-3.344h56.023Z" transform="translate(-382.01 -2065.434)" fill="#193540"/>
      <path id="Trazado_40272" data-name="Trazado 40272" d="M518.671,2069.329v17.214H385.9v-17.214H416.98v3.344a4.274,4.274,0,0,0,4.467,4.044h36.725a4.282,4.282,0,0,0,4.476-4.044v-3.344Z" transform="translate(-383.023 -2066.447)" fill="#9b235c"/>
    </g>
    <g id="Grupo_28893" data-name="Grupo 28893" transform="translate(381.375 1916.843)">
      <path id="Trazado_40273" data-name="Trazado 40273" d="M461.441,2028.28v-14.122a1.441,1.441,0,0,0-2.882,0v14.218a.72.72,0,0,0,.01.143l.019,5.149c0,.625-.73,1.163-1.594,1.163H420.269c-.865,0-1.585-.538-1.585-1.163v-16.523a1.445,1.445,0,0,0-1.441-1.44H403.775c-3.458,0-5.514-.538-6.657-1.729-1.287-1.345-1.787-3.929-1.623-8.386.01-.375.029-.73.038-1.067.038-1.1.058-2.046.067-2.882.028-2.555-.067-4.131-.212-6.551-.067-1.095-.144-2.373-.221-3.986a1.447,1.447,0,0,0-1.412-1.374l-6.781-.125a2.535,2.535,0,0,1-2.363-3.861c3.842-7.214,6.062-11.4,7.473-14.073.547-1.019.98-1.817,1.326-2.488a4.214,4.214,0,0,0,.2-.423,14.418,14.418,0,0,0,1.44-7.685c-.087-.864-.106-1.748-.125-2.488-.192-10.692,2.882-19.356,9.155-25.735,6.686-6.82,16.878-10.566,28.674-10.566a1.441,1.441,0,1,0,0-2.882c-12.584,0-23.5,4.054-30.73,11.431-6.734,6.858-10.183,16.474-9.981,27.8.019.8.048,1.749.135,2.709a11.64,11.64,0,0,1-1.316,6.493c-.249.461-.519.989-.845,1.6l-.115.2c-1.393,2.632-3.65,6.9-7.829,14.745a5.4,5.4,0,0,0,4.832,8.1l5.456.1c.048,1.028.106,1.892.154,2.68a82.9,82.9,0,0,1,.105,10.211c-.211,5.38.519,8.521,2.421,10.5,1.759,1.825,4.371,2.6,8.732,2.613H415.8v15.082a4.274,4.274,0,0,0,4.467,4.044h36.725a4.282,4.282,0,0,0,4.476-4.044v-5.063A1.953,1.953,0,0,0,461.441,2028.28Z" transform="translate(-381.375 -1919.404)" fill="#193540"/>
    </g>
    <g id="Grupo_28894" data-name="Grupo 28894" transform="translate(389.779 1965.998)">
      <path id="Trazado_40274" data-name="Trazado 40274" d="M411.514,1987.255v.038a1.437,1.437,0,0,1-1.412,1.432l-1.258.019-13.8.212-.835.009h-.029a1.441,1.441,0,0,1-.019-2.882l2.411-.039,12.267-.182,1.22-.019h.029A1.431,1.431,0,0,1,411.514,1987.255Z" transform="translate(-392.734 -1985.843)" fill="#193540"/>
    </g>
    <g id="Grupo_28895" data-name="Grupo 28895" transform="translate(393.023 1999.082)">
      <path id="Trazado_40275" data-name="Trazado 40275" d="M409.69,2033.442H398.559a1.441,1.441,0,0,1,0-2.882H409.69a1.441,1.441,0,0,1,0,2.882Z" transform="translate(-397.119 -2030.56)" fill="#193540"/>
    </g>
    <g id="Grupo_28896" data-name="Grupo 28896" transform="translate(415.798 2013.144)">
      <path id="Trazado_40276" data-name="Trazado 40276" d="M443.033,2052.449h-13.69a1.441,1.441,0,1,1,0-2.882h13.69a1.441,1.441,0,1,1,0,2.882Z" transform="translate(-427.902 -2049.567)" fill="#193540"/>
    </g>
    <g id="Grupo_28897" data-name="Grupo 28897" transform="translate(415.798 2022.073)">
      <path id="Trazado_40277" data-name="Trazado 40277" d="M456.723,2064.517h-27.38a1.441,1.441,0,1,1,0-2.882h27.38a1.441,1.441,0,0,1,0,2.882Z" transform="translate(-427.902 -2061.635)" fill="#193540"/>
    </g>
    <g id="Grupo_28898" data-name="Grupo 28898" transform="translate(443.18 2018.226)">
      <path id="Trazado_40278" data-name="Trazado 40278" d="M470.2,2056.436a5.3,5.3,0,0,0-5.081,3.843,5.24,5.24,0,0,0,0,2.882,5.283,5.283,0,1,0,5.081-6.725Zm0,7.685a2.4,2.4,0,1,1,2.4-2.4A2.4,2.4,0,0,1,470.2,2064.121Z" transform="translate(-464.912 -2056.436)" fill="#193540"/>
      <circle id="Elipse_32" data-name="Elipse 32" cx="2.402" cy="2.402" r="2.402" transform="translate(2.882 2.882)" fill="#ffc23b"/>
    </g>
    <g id="Grupo_28899" data-name="Grupo 28899" transform="translate(458.559 2014.868)">
      <path id="Trazado_40279" data-name="Trazado 40279" d="M531.815,2054.779H487.14a1.441,1.441,0,1,1,0-2.882h44.675a1.441,1.441,0,1,1,0,2.882Z" transform="translate(-485.699 -2051.897)" fill="#193540"/>
    </g>
    <g id="Grupo_28900" data-name="Grupo 28900" transform="translate(503.237 2011.022)">
      <path id="Trazado_40280" data-name="Trazado 40280" d="M551.37,2046.7a5.287,5.287,0,0,0-5.081,3.843,5.241,5.241,0,0,0,0,2.882,5.283,5.283,0,1,0,5.081-6.725Zm0,7.685a2.4,2.4,0,1,1,2.4-2.4A2.4,2.4,0,0,1,551.37,2054.383Z" transform="translate(-546.087 -2046.698)" fill="#193540"/>
      <circle id="Elipse_33" data-name="Elipse 33" cx="2.402" cy="2.402" r="2.402" transform="translate(2.882 2.882)" fill="#ffc23b"/>
    </g>
    <g id="Grupo_28901" data-name="Grupo 28901" transform="translate(430.116 2009.302)">
      <path id="Trazado_40281" data-name="Trazado 40281" d="M452.537,2044.374a5.274,5.274,0,0,0-5.072,3.843,5.027,5.027,0,0,0,0,2.881,5.279,5.279,0,1,0,5.072-6.724Zm0,7.685a2.4,2.4,0,1,1,2.4-2.4A2.4,2.4,0,0,1,452.537,2052.059Z" transform="translate(-447.254 -2044.374)" fill="#193540"/>
      <circle id="Elipse_34" data-name="Elipse 34" cx="2.402" cy="2.402" r="2.402" transform="translate(2.882 2.882)" fill="#ffc23b"/>
    </g>
    <g id="Grupo_28902" data-name="Grupo 28902" transform="translate(404.726 1995.239)">
      <path id="Trazado_40282" data-name="Trazado 40282" d="M418.221,2025.366a5.274,5.274,0,0,0-5.072,3.842,5.011,5.011,0,0,0,0,2.882,5.279,5.279,0,1,0,5.072-6.724Zm0,7.685a2.4,2.4,0,1,1,2.4-2.4A2.4,2.4,0,0,1,418.221,2033.051Z" transform="translate(-412.937 -2025.366)" fill="#193540"/>
      <circle id="Elipse_35" data-name="Elipse 35" cx="2.402" cy="2.402" r="2.402" transform="translate(2.882 2.882)" fill="#ffc23b"/>
    </g>
    <g id="Grupo_28903" data-name="Grupo 28903" transform="translate(405.678 1962.155)">
      <path id="Trazado_40283" data-name="Trazado 40283" d="M419.506,1980.649a5.273,5.273,0,0,0-5.082,3.862,4.976,4.976,0,0,0-.2,1.421,5.2,5.2,0,0,0,.211,1.46,5.281,5.281,0,1,0,5.072-6.744Zm0,7.685a2.413,2.413,0,0,1-2.4-2.392v-.039a2.4,2.4,0,1,1,2.4,2.431Z" transform="translate(-414.223 -1980.649)" fill="#193540"/>
      <path id="Trazado_40284" data-name="Trazado 40284" d="M422.921,1986.946a2.4,2.4,0,0,1-4.8.01v-.039a2.4,2.4,0,0,1,4.8.029Z" transform="translate(-415.236 -1981.662)" fill="#ffc23b"/>
    </g>
  </g>
</svg>
