<svg xmlns="http://www.w3.org/2000/svg" width="116.029" height="116.851" viewBox="0 0 116.029 116.851">
  <g id="Grupo_28885" data-name="Grupo 28885" transform="translate(0 0)">
    <g id="Grupo_28873" data-name="Grupo 28873" transform="translate(25.785 39.421)">
      <path id="Trazado_40239" data-name="Trazado 40239" d="M760.388,1747.984c-.187-.179-.634-.585-1.316-1.154-.187-.154-.39-.317-.61-.5-.577-.463-1.276-1.007-2.088-1.6-4.592-3.357-13.671-8.884-24.188-9.4-.52-.024-1.049-.041-1.577-.041-.617,0-1.235.016-1.845.057-10.387.594-19.336,6.031-23.887,9.355-.618.455-1.179.878-1.666,1.26-1.292,1.016-2.114,1.763-2.39,2.023a1.153,1.153,0,0,0-.325.537v.008a1.015,1.015,0,0,0-.033.561v.016a1.185,1.185,0,0,0,.179.447c.065.1.171.26.317.472a2.256,2.256,0,0,0,.187.211c.358.317.951.837,1.764,1.48.561.454,1.219.959,1.967,1.511,4.811,3.511,14.564,9.412,25.732,9.412,11.184,0,20.945-5.917,25.765-9.436.934-.682,1.714-1.3,2.34-1.812v-.008c.6-.488,1.057-.886,1.35-1.146a1.545,1.545,0,0,0,.194-.211c.146-.212.253-.366.317-.472A1.215,1.215,0,0,0,760.388,1747.984Zm-5.453,3.243a49.377,49.377,0,0,1-15.6,7.745,31.682,31.682,0,0,1-17.662-.057,49.5,49.5,0,0,1-15.353-7.664c-1.268-.919-2.251-1.724-2.917-2.292.666-.561,1.658-1.374,2.917-2.292a50.039,50.039,0,0,1,14.638-7.453,34.53,34.53,0,0,1,8.006-1.438c.544-.033,1.1-.049,1.65-.049.463,0,.927.008,1.39.033a34.04,34.04,0,0,1,8.047,1.4,49.729,49.729,0,0,1,14.89,7.534c1.244.91,2.227,1.707,2.885,2.268C757.162,1749.52,756.187,1750.317,754.935,1751.227Z" transform="translate(-700.439 -1735.289)" fill="#193540"/>
    </g>
    <g id="Grupo_28874" data-name="Grupo 28874" transform="translate(42.366 39.356)">
      <path id="Trazado_40240" data-name="Trazado 40240" d="M745.648,1739.136a13.453,13.453,0,0,0-7.859-3.828,12.563,12.563,0,0,0-1.659-.105,12.772,12.772,0,0,0-1.763.122,13.528,13.528,0,1,0,11.281,3.812Zm-9.518,20.652a11.074,11.074,0,0,1,0-22.148,10.938,10.938,0,0,1,1.471.1,11.074,11.074,0,0,1-1.471,22.05Z" transform="translate(-722.623 -1735.202)" fill="#193540"/>
    </g>
    <g id="Grupo_28875" data-name="Grupo 28875" transform="translate(49.615 46.305)">
      <path id="Trazado_40241" data-name="Trazado 40241" d="M738.881,1744.5a6.563,6.563,0,1,0,6.559,6.56A6.567,6.567,0,0,0,738.881,1744.5Zm0,10.688a4.125,4.125,0,1,1,4.121-4.129A4.129,4.129,0,0,1,738.881,1755.187Z" transform="translate(-732.322 -1744.499)" fill="#193540"/>
    </g>
    <g id="Grupo_28876" data-name="Grupo 28876" transform="translate(0 0)">
      <path id="Trazado_40242" data-name="Trazado 40242" d="M740.689,1799.4h-36.4a4.034,4.034,0,0,1-4.224-3.8V1780.44H687.938c-4.265,0-6.808-.759-8.5-2.523-1.846-1.92-2.547-4.986-2.346-10.252a80.912,80.912,0,0,0-.1-10.144c-.049-.824-.1-1.747-.164-2.845l-5.6-.1a5.15,5.15,0,0,1-4.609-7.721c5.249-9.868,7.451-14.012,8.714-16.405a11.7,11.7,0,0,0,1.329-6.553c-.087-.945-.113-1.879-.128-2.668-.2-11.174,3.195-20.653,9.83-27.411,7.133-7.264,17.9-11.265,30.31-11.265,25.716,0,42.309,13.419,44.386,35.9a1.219,1.219,0,1,1-2.428.225c-1.948-21.091-17.633-33.683-41.957-33.683-11.753,0-21.9,3.742-28.57,10.536-6.254,6.37-9.326,15-9.131,25.659.013.744.038,1.621.118,2.488a14.14,14.14,0,0,1-1.6,7.914c-1.264,2.395-3.466,6.542-8.718,16.413a2.72,2.72,0,0,0,2.513,4.139l6.727.125a1.219,1.219,0,0,1,1.2,1.159c.08,1.609.156,2.871.221,3.957a83.043,83.043,0,0,1,.108,10.384c-.174,4.541.324,7.073,1.667,8.469,1.177,1.224,3.258,1.771,6.748,1.774h13.343a1.22,1.22,0,0,1,1.219,1.22V1795.6a1.64,1.64,0,0,0,1.786,1.363h36.4a1.64,1.64,0,0,0,1.786-1.363v-5.011a.385.385,0,0,1-.021-.115c0-.037-.005-.075-.005-.114v-13.983a1.219,1.219,0,1,1,2.438,0v13.9a2.016,2.016,0,0,1,.026.307v5.011A4.034,4.034,0,0,1,740.689,1799.4Z" transform="translate(-665.941 -1682.547)" fill="#193540"/>
    </g>
    <g id="Grupo_28877" data-name="Grupo 28877" transform="translate(75.685 73.968)">
      <path id="Trazado_40243" data-name="Trazado 40243" d="M804.844,1804.3l-25.968-21.8-.1-.081a.008.008,0,0,1-.008-.008l-.74-.626a1.114,1.114,0,0,0-.268-.162,1.17,1.17,0,0,0-.666-.106,1.217,1.217,0,0,0-.845.5,34.318,34.318,0,0,1-8.534,8.533,1.216,1.216,0,0,0-.5.837,1.2,1.2,0,0,0,.277.943l.707.845,21.79,25.951a7.426,7.426,0,0,0,5.454,2.707c.146.007.3.007.454.007a11.547,11.547,0,0,0,8.006-3.641,11.4,11.4,0,0,0,3.633-8.461A7.4,7.4,0,0,0,804.844,1804.3Zm-2.666,12.184a8.995,8.995,0,0,1-6.615,2.917,4.976,4.976,0,0,1-3.7-1.82L770.2,1791.778c.065-.057.13-.105.2-.154.081-.057.162-.122.244-.187.268-.2.537-.423.8-.642.235-.2.479-.39.707-.594a2.064,2.064,0,0,0,.211-.187c.252-.212.5-.431.732-.65.342-.317.682-.642,1.008-.967.375-.374.74-.756,1.1-1.154a.111.111,0,0,0,.025-.033c.3-.325.593-.658.886-1,.106-.13.22-.26.325-.39q.44-.525.854-1.073c.073-.081.13-.163.2-.244l25.822,21.676a4.957,4.957,0,0,1,1.8,3.69A9.011,9.011,0,0,1,802.178,1816.487Z" transform="translate(-767.201 -1781.511)" fill="#193540"/>
      <path id="Trazado_40244" data-name="Trazado 40244" d="M806.108,1810.882a10,10,0,0,1-9.534,9.533,4.975,4.975,0,0,1-3.7-1.82l-21.668-25.806c.065-.057.13-.105.2-.154.081-.057.162-.122.244-.187.268-.2.537-.423.8-.642.235-.2.479-.39.707-.594a2.05,2.05,0,0,0,.211-.187c.252-.212.5-.431.732-.65.342-.317.682-.642,1.008-.967.374-.374.74-.756,1.1-1.154a.112.112,0,0,0,.025-.033c.309-.325.6-.658.886-1,.114-.13.228-.26.325-.39q.452-.525.854-1.073c.073-.081.13-.163.2-.244l25.822,21.676A4.958,4.958,0,0,1,806.108,1810.882Z" transform="translate(-768.213 -1782.522)" fill="#437795"/>
    </g>
    <g id="Grupo_28878" data-name="Grupo 28878" transform="translate(18.805 17.086)">
      <path id="Trazado_40245" data-name="Trazado 40245" d="M749.927,1721.272a30.358,30.358,0,0,0-51.789,19.7v.008c-.016.2-.025.365-.033.561v.016q-.025.6-.024,1.2a30.369,30.369,0,1,0,51.846-21.482Zm6.429,22.571a27.93,27.93,0,0,1-55.8.325c-.024-.472-.032-.943-.032-1.414a28.385,28.385,0,0,1,.333-4.34,27.937,27.937,0,0,1,55.251.365,28,28,0,0,1,.277,3.975c0,.357-.008.723-.025,1.081Zm-6.429-22.571a30.358,30.358,0,0,0-51.789,19.7v.008c-.016.2-.025.365-.033.561v.016q-.025.6-.024,1.2a30.369,30.369,0,1,0,51.846-21.482Zm6.429,22.571a27.93,27.93,0,0,1-55.8.325c-.024-.472-.032-.943-.032-1.414a28.385,28.385,0,0,1,.333-4.34,27.937,27.937,0,0,1,55.251.365,28,28,0,0,1,.277,3.975c0,.357-.008.723-.025,1.081Zm-6.429-22.571a30.358,30.358,0,0,0-51.789,19.7v.008c-.016.2-.025.365-.033.561v.016q-.025.6-.024,1.2a30.369,30.369,0,1,0,51.846-21.482Zm6.429,22.571a27.93,27.93,0,0,1-55.8.325c-.024-.472-.032-.943-.032-1.414a28.385,28.385,0,0,1,.333-4.34,27.937,27.937,0,0,1,55.251.365,28,28,0,0,1,.277,3.975c0,.357-.008.723-.025,1.081Zm-6.429-22.571a30.358,30.358,0,0,0-51.789,19.7v.008c-.016.2-.025.365-.033.561v.016q-.025.6-.024,1.2a30.369,30.369,0,1,0,51.846-21.482Zm6.429,22.571a27.93,27.93,0,0,1-55.8.325c-.024-.472-.032-.943-.032-1.414a28.385,28.385,0,0,1,.333-4.34,27.937,27.937,0,0,1,55.251.365,28,28,0,0,1,.277,3.975c0,.357-.008.723-.025,1.081Zm-6.429-22.571a30.358,30.358,0,0,0-51.789,19.7v.008c-.016.2-.025.365-.033.561v.016q-.025.6-.024,1.2a30.369,30.369,0,1,0,51.846-21.482Zm6.429,22.571a27.93,27.93,0,0,1-55.8.325c-.024-.472-.032-.943-.032-1.414a28.385,28.385,0,0,1,.333-4.34,27.937,27.937,0,0,1,55.251.365,28,28,0,0,1,.277,3.975c0,.357-.008.723-.025,1.081Zm-6.429-22.571a30.358,30.358,0,0,0-51.789,19.7v.008c-.016.2-.025.365-.033.561v.016q-.025.6-.024,1.2a30.369,30.369,0,1,0,51.846-21.482Zm6.429,22.571a27.93,27.93,0,0,1-55.8.325c-.024-.472-.032-.943-.032-1.414a28.385,28.385,0,0,1,.333-4.34,27.937,27.937,0,0,1,55.251.365,28,28,0,0,1,.277,3.975c0,.357-.008.723-.025,1.081Zm8.721-8.534c-.17-.822-.357-1.634-.585-2.438a37.414,37.414,0,1,0-15.515,41.093c.309-.2.617-.406.926-.626q.549-.378,1.073-.78c.065-.057.13-.105.2-.154.081-.057.162-.122.244-.187.268-.2.537-.423.8-.642.235-.2.479-.39.707-.593a2.066,2.066,0,0,0,.211-.187c.252-.212.5-.431.732-.65.342-.317.682-.642,1.008-.967.374-.374.74-.755,1.1-1.154a.111.111,0,0,0,.025-.033c.3-.325.594-.658.886-1,.106-.13.22-.26.325-.39q.44-.525.854-1.073.5-.647.975-1.317c.211-.309.422-.618.626-.927l.049-.073q.793-1.194,1.464-2.438a36.7,36.7,0,0,0,4.071-11.508c.155-.8.268-1.626.358-2.439A37.009,37.009,0,0,0,765.077,1735.309Zm-8.046,27.5a34.822,34.822,0,1,1,5.275-28.715.1.1,0,0,0,.008.049c.04.155.073.309.114.463v.008a34.631,34.631,0,0,1,.626,12.964.051.051,0,0,0-.007.032c-.025.178-.049.35-.082.528v.008A34.838,34.838,0,0,1,757.031,1762.8Zm-16.947-48.124a30.363,30.363,0,0,0-41.946,26.293v.008c-.016.2-.025.365-.033.561v.016q-.025.6-.024,1.2a30.357,30.357,0,1,0,42-28.074Zm16.3,28.074c0,.357-.008.723-.025,1.081v.008a27.93,27.93,0,0,1-55.8.325c-.024-.472-.032-.943-.032-1.414a28.385,28.385,0,0,1,.333-4.34,27.937,27.937,0,0,1,55.251.365A28,28,0,0,1,756.38,1742.754Zm-6.453-21.482a30.358,30.358,0,0,0-51.789,19.7v.008c-.016.2-.025.365-.033.561v.016q-.025.6-.024,1.2a30.369,30.369,0,1,0,51.846-21.482Zm6.429,22.571a27.93,27.93,0,0,1-55.8.325c-.024-.472-.032-.943-.032-1.414a28.385,28.385,0,0,1,.333-4.34,27.937,27.937,0,0,1,55.251.365,28,28,0,0,1,.277,3.975c0,.357-.008.723-.025,1.081Zm-6.429-22.571a30.358,30.358,0,0,0-51.789,19.7v.008c-.016.2-.025.365-.033.561v.016q-.025.6-.024,1.2a30.369,30.369,0,1,0,51.846-21.482Zm6.429,22.571a27.93,27.93,0,0,1-55.8.325c-.024-.472-.032-.943-.032-1.414a28.385,28.385,0,0,1,.333-4.34,27.937,27.937,0,0,1,55.251.365,28,28,0,0,1,.277,3.975c0,.357-.008.723-.025,1.081Zm-6.429-22.571a30.358,30.358,0,0,0-51.789,19.7v.008c-.016.2-.025.365-.033.561v.016q-.025.6-.024,1.2a30.369,30.369,0,1,0,51.846-21.482Zm6.429,22.571a27.93,27.93,0,0,1-55.8.325c-.024-.472-.032-.943-.032-1.414a28.385,28.385,0,0,1,.333-4.34,27.937,27.937,0,0,1,55.251.365,28,28,0,0,1,.277,3.975c0,.357-.008.723-.025,1.081Zm-6.429-22.571a30.358,30.358,0,0,0-51.789,19.7v.008c-.016.2-.025.365-.033.561v.016q-.025.6-.024,1.2a30.369,30.369,0,1,0,51.846-21.482Zm6.429,22.571a27.93,27.93,0,0,1-55.8.325c-.024-.472-.032-.943-.032-1.414a28.385,28.385,0,0,1,.333-4.34,27.937,27.937,0,0,1,55.251.365,28,28,0,0,1,.277,3.975c0,.357-.008.723-.025,1.081Z" transform="translate(-691.101 -1705.407)" fill="#193540"/>
      <path id="Trazado_40246" data-name="Trazado 40246" d="M763.25,1735.434v-.008a1,1,0,0,1-.114-.463.1.1,0,0,1-.008-.049,34.916,34.916,0,1,0,.659,14.052v-.008a.305.305,0,0,1-.008-.09,1.147,1.147,0,0,1,.09-.439.051.051,0,0,1,.007-.032A34.628,34.628,0,0,0,763.25,1735.434Zm-12.5,29.625a30.365,30.365,0,0,1-51.846-21.481q0-.6.024-1.2v-.016a1.015,1.015,0,0,1,.033-.561v-.008a30.367,30.367,0,1,1,51.789,23.261Z" transform="translate(-691.925 -1706.231)" fill="#9b235c"/>
      <path id="Trazado_40247" data-name="Trazado 40247" d="M738.425,1738.584c-.463-.025-.926-.033-1.39-.033-.553,0-1.105.016-1.65.049a11.068,11.068,0,1,0,3.039-.016Zm-1.17,17.54a6.563,6.563,0,1,1,6.559-6.567A6.568,6.568,0,0,1,737.256,1756.123Z" transform="translate(-699.886 -1713.778)" fill="#ffc23b"/>
    </g>
    <g id="Grupo_28879" data-name="Grupo 28879" transform="translate(104.948 40.421)">
      <path id="Trazado_40248" data-name="Trazado 40248" d="M811.7,1736.627a5.336,5.336,0,0,0-5.2,4.129,5.171,5.171,0,0,0,0,2.438,5.346,5.346,0,1,0,5.2-6.567Zm0,8.258a2.91,2.91,0,1,1,2.91-2.91A2.912,2.912,0,0,1,811.7,1744.885Z" transform="translate(-806.353 -1736.627)" fill="#193540"/>
      <path id="Trazado_40249" data-name="Trazado 40249" d="M815.435,1742.8a2.91,2.91,0,1,1-2.91-2.91A2.907,2.907,0,0,1,815.435,1742.8Z" transform="translate(-807.177 -1737.451)" fill="#ffc23b"/>
    </g>
    <g id="Grupo_28880" data-name="Grupo 28880" transform="translate(104.948 54.367)">
      <path id="Trazado_40250" data-name="Trazado 40250" d="M811.7,1755.286a5.351,5.351,0,0,0-5.2,4.137,5.174,5.174,0,0,0,0,2.439,5.347,5.347,0,1,0,5.2-6.576Zm0,8.266a2.914,2.914,0,1,1,2.91-2.91A2.917,2.917,0,0,1,811.7,1763.552Z" transform="translate(-806.353 -1755.286)" fill="#193540"/>
      <path id="Trazado_40251" data-name="Trazado 40251" d="M815.435,1761.466a2.91,2.91,0,1,1-2.91-2.917A2.912,2.912,0,0,1,815.435,1761.466Z" transform="translate(-807.177 -1756.11)" fill="#ffc23b"/>
    </g>
    <g id="Grupo_28881" data-name="Grupo 28881" transform="translate(104.948 68.323)">
      <path id="Trazado_40252" data-name="Trazado 40252" d="M811.7,1773.957a5.344,5.344,0,0,0-5.2,4.129,5.171,5.171,0,0,0,0,2.438,5.346,5.346,0,1,0,5.2-6.567Zm0,8.266a2.914,2.914,0,1,1,2.91-2.918A2.919,2.919,0,0,1,811.7,1782.223Z" transform="translate(-806.353 -1773.957)" fill="#193540"/>
      <path id="Trazado_40253" data-name="Trazado 40253" d="M815.435,1780.129a2.91,2.91,0,1,1-2.91-2.91A2.914,2.914,0,0,1,815.435,1780.129Z" transform="translate(-807.177 -1774.781)" fill="#ffc23b"/>
    </g>
    <g id="Grupo_28882" data-name="Grupo 28882" transform="translate(90.009 44.55)">
      <path id="Trazado_40254" data-name="Trazado 40254" d="M803.743,1743.37a1.218,1.218,0,0,1-1.219,1.219H787.585a1.2,1.2,0,0,1-1.1-.7v-.008a1,1,0,0,1-.114-.463.1.1,0,0,1-.008-.049,1.217,1.217,0,0,1,1.219-1.219h14.939A1.217,1.217,0,0,1,803.743,1743.37Z" transform="translate(-786.366 -1742.151)" fill="#193540"/>
    </g>
    <g id="Grupo_28883" data-name="Grupo 28883" transform="translate(90.66 58.504)">
      <path id="Trazado_40255" data-name="Trazado 40255" d="M803.963,1762.04a1.218,1.218,0,0,1-1.219,1.22H788.455a1.209,1.209,0,0,1-1.211-1.122v-.008a.3.3,0,0,1-.008-.09,1.146,1.146,0,0,1,.09-.439.051.051,0,0,1,.008-.032,1.213,1.213,0,0,1,1.122-.748h14.289A1.218,1.218,0,0,1,803.963,1762.04Z" transform="translate(-787.236 -1760.821)" fill="#193540"/>
    </g>
    <g id="Grupo_28884" data-name="Grupo 28884" transform="translate(86.165 72.454)">
      <path id="Trazado_40256" data-name="Trazado 40256" d="M801.223,1781.922H782.442a1.219,1.219,0,0,1,0-2.438h18.781a1.219,1.219,0,1,1,0,2.438Z" transform="translate(-781.223 -1779.484)" fill="#193540"/>
    </g>
  </g>
</svg>
