<svg xmlns="http://www.w3.org/2000/svg" width="107.266" height="115.34" viewBox="0 0 107.266 115.34">
  <g id="Grupo_28931" data-name="Grupo 28931" transform="translate(156.749 -2494.919)">
    <g id="Grupo_28923" data-name="Grupo 28923">
      <g id="Grupo_28922" data-name="Grupo 28922">
        <path id="Trazado_40295" data-name="Trazado 40295" d="M-79.622,2569.166h-72.037v-47.433h72.037Z" fill="#657d89" opacity="0.2" style="isolation: isolate"/>
        <rect id="Rectángulo_5442" data-name="Rectángulo 5442" width="65.488" height="12.659" transform="translate(-145.737 2580.486)" fill="#657d89" opacity="0.2" style="isolation: isolate"/>
        <rect id="Rectángulo_5443" data-name="Rectángulo 5443" width="65.488" height="12.659" transform="translate(-148.715 2578.169)" fill="none" stroke="#3d4451" stroke-miterlimit="10" stroke-width="2.434"/>
        <path id="Trazado_40296" data-name="Trazado 40296" d="M-76.414,2568.187h-79.118v-52.1h79.118Z" fill="none" stroke="#3d4451" stroke-miterlimit="10" stroke-width="2.434"/>
        <path id="Trazado_40297" data-name="Trazado 40297" d="M-76.414,2596.185h-79.118v-24.1h79.118Z" fill="none" stroke="#3d4451" stroke-miterlimit="10" stroke-width="2.188"/>
        <path id="Trazado_40298" data-name="Trazado 40298" d="M-149.058,2522.663v37.491h66.335v-37.491Z" fill="#9b235c" stroke="#3d4451" stroke-miterlimit="10" stroke-width="1.546"/>
        <line id="Línea_290" data-name="Línea 290" x2="59.401" transform="translate(-148.959 2584.255)" fill="none" stroke="#3d4451" stroke-miterlimit="10" stroke-width="2.434"/>
        <line id="Línea_291" data-name="Línea 291" y2="13.39" transform="translate(-140.925 2578.169)" fill="none" stroke="#3d4451" stroke-miterlimit="10" stroke-width="2.434"/>
        <line id="Línea_292" data-name="Línea 292" y2="14.213" transform="translate(-133.674 2577.609)" fill="none" stroke="#3d4451" stroke-miterlimit="10" stroke-width="2.584"/>
        <line id="Línea_293" data-name="Línea 293" y2="7.494" transform="translate(-124.743 2577.609)" fill="none" stroke="#3d4451" stroke-miterlimit="10" stroke-width="1.809"/>
        <line id="Línea_294" data-name="Línea 294" y2="7.494" transform="translate(-116.23 2577.883)" fill="none" stroke="#3d4451" stroke-miterlimit="10" stroke-width="1.809"/>
        <line id="Línea_295" data-name="Línea 295" y2="14.213" transform="translate(-107.056 2577.883)" fill="none" stroke="#3d4451" stroke-miterlimit="10" stroke-width="2.584"/>
        <line id="Línea_296" data-name="Línea 296" y2="14.213" transform="translate(-98.269 2577.883)" fill="none" stroke="#3d4451" stroke-miterlimit="10" stroke-width="2.584"/>
        <line id="Línea_297" data-name="Línea 297" y2="6.977" transform="translate(-90.304 2578.43)" fill="none" stroke="#3d4451" stroke-miterlimit="10" stroke-width="2.584"/>
        <rect id="Rectángulo_5444" data-name="Rectángulo 5444" width="8.786" height="2.067" transform="translate(-90 2562.727)" fill="#3d4451"/>
        <g id="Grupo_28921" data-name="Grupo 28921">
          <path id="Trazado_40299" data-name="Trazado 40299" d="M-73.526,2543.783l-.388-.115c-9.492-2.84-16.235-10.6-19.5-22.455a60.312,60.312,0,0,1-2.083-17.019l.053-1.152,14.8.159,5.961-6.95,6.888,6.683,16.507-.063.134,1.047a46.7,46.7,0,0,1-1.288,16.117c-2.967,11.414-10.128,19.578-20.708,23.6Z" fill="#f9f9f9"/>
          <path id="Trazado_40300" data-name="Trazado 40300" d="M-70.566,2544.893l-.362-.1c-8.861-2.553-15.156-9.536-18.205-20.193a52.315,52.315,0,0,1-1.944-15.306l.049-1.036,14.654.143,5.843-5.989,5.32,5.749,15.41-.057.125.942a40.509,40.509,0,0,1-1.2,14.495,30.068,30.068,0,0,1-19.332,21.227Z" fill="#ffc23b"/>
          <path id="Trazado_40301" data-name="Trazado 40301" d="M-73.526,2543.783l-.388-.115c-9.492-2.84-16.235-10.6-19.5-22.455a60.312,60.312,0,0,1-2.083-17.019l.053-1.152,14.8.159,5.961-6.95,6.888,6.683,16.507-.063.134,1.047a46.7,46.7,0,0,1-1.288,16.117c-2.967,11.414-10.128,19.578-20.708,23.6Z" fill="none" stroke="#3d4451" stroke-miterlimit="10" stroke-width="1.827"/>
          <g id="Grupo_28920" data-name="Grupo 28920">
            <path id="Trazado_40302" data-name="Trazado 40302" d="M-68.95,2516.341a.99.99,0,0,0,.991-.988h0v-1.635c0-2.67-1.452-4.849-3.2-4.849h-5.227c-1.749,0-3.371,2.179-3.371,4.849v1.635a.99.99,0,0,0,.99.99h.091a.99.99,0,0,0,.991-.988h0v-1.143c0-1.995.865-3.541,2.083-3.541h3.638c1.217,0,2.024,1.547,2.024,3.541v1.143a.99.99,0,0,0,.99.99h0Z" fill="#3d4451"/>
            <path id="Trazado_40303" data-name="Trazado 40303" d="M-68.195,2517.151h-10.65c-1.612,0-2.985.993-2.985,2.232v8.7c0,1.24,1.373,2.22,2.985,2.22h10.65c1.612,0,2.757-.978,2.757-2.22v-8.7C-65.438,2518.145-66.586,2517.151-68.195,2517.151Zm-4.5,6.817.465,3.425h-2.61l.4-3.488a1.268,1.268,0,0,1-.634-1.177,1.573,1.573,0,0,1,1.463-1.676,1.574,1.574,0,0,1,1.677,1.463,1.578,1.578,0,0,1-.757,1.454Z" fill="#3d4451"/>
          </g>
        </g>
      </g>
      <path id="Trazado_40304" data-name="Trazado 40304" d="M-118.661,2551.1a2.591,2.591,0,0,1-1.762-.78l-8.657-8.584a1.931,1.931,0,0,1-.066-2.73h0a2.028,2.028,0,0,1,.255-.225,2.6,2.6,0,0,1,3.334.159l6.778,6.683,14.087-15.822a2.581,2.581,0,0,1,3.314-.357,1.915,1.915,0,0,1,.614,2.638,1.981,1.981,0,0,1-.211.279l-15.829,17.86a2.483,2.483,0,0,1-1.783.883Z" fill="#ffc23b" stroke="#3d4451" stroke-miterlimit="10" stroke-width="2.41"/>
    </g>
    <g id="Grupo_28930" data-name="Grupo 28930">
      <g id="Grupo_28929" data-name="Grupo 28929">
        <g id="Grupo_28925" data-name="Grupo 28925">
          <g id="Grupo_28924" data-name="Grupo 28924">
            <path id="Trazado_40305" data-name="Trazado 40305" d="M-116.631,2582.2a12.65,12.65,0,0,0,12.928-12.365,12.65,12.65,0,0,0-12.365-12.928,12.649,12.649,0,0,0-12.927,12.365v.281A12.51,12.51,0,0,0-116.631,2582.2Z" fill="#f5fafc"/>
            <path id="Trazado_40306" data-name="Trazado 40306" d="M-94.07,2609.438c-.052-12.793-9.829-25.778-21.885-25.778s-21.832,12.985-21.885,25.778" fill="#f5fafc"/>
          </g>
        </g>
        <g id="Grupo_28927" data-name="Grupo 28927" opacity="0.2">
          <g id="Grupo_28926" data-name="Grupo 28926">
            <path id="Trazado_40307" data-name="Trazado 40307" d="M-114.586,2580.758a10.278,10.278,0,0,0,10.43-10.12,10.278,10.278,0,0,0-10.12-10.431,10.278,10.278,0,0,0-10.431,10.121h0v.154A10.2,10.2,0,0,0-114.586,2580.758Z" fill="#657d89"/>
            <path id="Trazado_40308" data-name="Trazado 40308" d="M-93.8,2610.259c-.043-11.671-8.293-23.516-18.468-23.516s-18.42,11.845-18.468,23.516" fill="#657d89"/>
          </g>
        </g>
        <g id="Grupo_28928" data-name="Grupo 28928">
          <path id="Trazado_40309" data-name="Trazado 40309" d="M-116.68,2582.133a12.933,12.933,0,0,0,12.933-12.934,12.934,12.934,0,0,0-12.934-12.933,12.934,12.934,0,0,0-12.933,12.933,12.934,12.934,0,0,0,12.933,12.934Z" fill="none" stroke="#3d4451" stroke-miterlimit="10" stroke-width="2.735"/>
          <path id="Trazado_40310" data-name="Trazado 40310" d="M-93.09,2609.986c-.053-13.084-10.277-26.363-22.883-26.363s-22.828,13.279-22.883,26.363" fill="none" stroke="#3d4451" stroke-miterlimit="10" stroke-width="2.735"/>
        </g>
      </g>
    </g>
  </g>
</svg>
