<svg xmlns="http://www.w3.org/2000/svg" width="108.016" height="115.646" viewBox="0 0 108.016 115.646">
  <g id="Grupo_28919" data-name="Grupo 28919" transform="translate(16.028 -2495.21)">
    <g id="Grupo_28918" data-name="Grupo 28918">
      <g id="Grupo_28913" data-name="Grupo 28913">
        <g id="Grupo_28912" data-name="Grupo 28912">
          <rect id="Rectángulo_5436" data-name="Rectángulo 5436" width="76.94" height="85.968" rx="2.099" transform="translate(15.048 2522.1)" fill="#657d89" opacity="0.2" style="isolation: isolate"/>
          <rect id="Rectángulo_5437" data-name="Rectángulo 5437" width="78.012" height="92.348" rx="2.191" transform="translate(6.765 2509.494)" fill="none" stroke="#3d4451" stroke-miterlimit="10" stroke-width="2.773"/>
        </g>
        <path id="Trazado_40285" data-name="Trazado 40285" d="M61.14,2542.6a2.069,2.069,0,0,1-1.436-.713l-6.975-7.667a1.772,1.772,0,0,1,.1-2.5h0c.034-.032.069-.061.106-.09a2.029,2.029,0,0,1,2.739.185l5.462,5.968,11.857-13.707a2.029,2.029,0,0,1,2.733-.266,1.752,1.752,0,0,1,.378,2.448h0c-.031.042-.063.079-.1.12l-13.324,15.473a2,2,0,0,1-1.482.75Z" fill="#ffc23b" stroke="#3d4451" stroke-miterlimit="10" stroke-width="2.049"/>
        <path id="Trazado_40286" data-name="Trazado 40286" d="M61.09,2568.9a2.075,2.075,0,0,1-1.436-.714l-6.975-7.666a1.773,1.773,0,0,1,.1-2.5c.034-.031.069-.06.1-.089a2.029,2.029,0,0,1,2.739.185l5.462,5.968,11.857-13.706a2.026,2.026,0,0,1,2.733-.266,1.751,1.751,0,0,1,.378,2.448h0c-.031.041-.063.08-.1.12l-13.325,15.473a2,2,0,0,1-1.481.749Z" fill="#ffc23b" stroke="#3d4451" stroke-miterlimit="10" stroke-width="2.049"/>
        <path id="Trazado_40287" data-name="Trazado 40287" d="M61.041,2594.592a2.068,2.068,0,0,1-1.436-.713l-6.975-7.665a1.773,1.773,0,0,1,.1-2.506h0c.033-.031.068-.06.1-.088a2.03,2.03,0,0,1,2.74.185l5.462,5.967L72.9,2576.066a2.028,2.028,0,0,1,2.733-.267A1.754,1.754,0,0,1,76,2578.25h0c-.03.041-.062.081-.095.119l-13.322,15.474a2.008,2.008,0,0,1-1.482.75Z" fill="#ffc23b" stroke="#3d4451" stroke-miterlimit="10" stroke-width="2.049"/>
        <rect id="Rectángulo_5438" data-name="Rectángulo 5438" width="6.193" height="14.738" transform="translate(20.813 2525.875)" fill="#f5fafc"/>
        <rect id="Rectángulo_5439" data-name="Rectángulo 5439" width="6.193" height="14.738" transform="translate(20.813 2552.31)" fill="#f5fafc"/>
        <rect id="Rectángulo_5440" data-name="Rectángulo 5440" width="17.583" height="16.57" transform="translate(20.487 2525.181)" fill="none" stroke="#3d4451" stroke-miterlimit="10" stroke-width="2.375"/>
        <rect id="Rectángulo_5441" data-name="Rectángulo 5441" width="17.583" height="16.57" transform="translate(20.487 2551.465)" fill="none" stroke="#3d4451" stroke-miterlimit="10" stroke-width="2.375"/>
      </g>
      <g id="Grupo_28917" data-name="Grupo 28917">
        <g id="Grupo_28916" data-name="Grupo 28916">
          <g id="Grupo_28915" data-name="Grupo 28915">
            <g id="Grupo_28914" data-name="Grupo 28914">
              <path id="Trazado_40288" data-name="Trazado 40288" d="M3.728,2584.023a10.708,10.708,0,1,0-10.48-10.931h0q-.008.4.013.806A10.882,10.882,0,0,0,3.728,2584.023Z" fill="#3d4451"/>
            </g>
          </g>
          <path id="Trazado_40289" data-name="Trazado 40289" d="M-6.441,2605.607" fill="#3d4451"/>
          <path id="Trazado_40290" data-name="Trazado 40290" d="M-13.975,2599.17c.926-3.964,2.329-7.87,5.274-10.708a14.961,14.961,0,0,1,10.181-4.491c1.643,0,8.272-.021,12,.2,0,0,16.838-4.517,17.992-4.7a5.065,5.065,0,0,1,3.39.513,2.952,2.952,0,0,1,1.383,1.806,3.859,3.859,0,0,1-1.008,3.511c-1.737,1.854-4.592,2.579-6.934,3.421-2.652.951-5.292,1.947-7.959,2.86-2.31.793-3.575,3.9-4.146,5.986-.491,1.793.123,8.988.017,10.84v2.241c-7.8,0-15.608.065-23.409,0,.124-3.292.008-6.622.006-9.921l-1.657,9.947a45.973,45.973,0,0,1-5.667.148c-1.378-.14-1.669-.317-1.451-1.554.211-1.189.464-2.378.7-3.567C-14.861,2603.618-14.492,2601.384-13.975,2599.17Z" fill="#3d4451"/>
          <path id="Trazado_40291" data-name="Trazado 40291" d="M-6.324,2604.956" fill="#3d4451"/>
        </g>
        <path id="Trazado_40292" data-name="Trazado 40292" d="M34.359,2584.6l19.327-17.781-1.439-1.185-20.831,16.207" fill="#3d4451"/>
      </g>
      <path id="Trazado_40293" data-name="Trazado 40293" d="M1.856,2598.044l1.928-8.307-1.767-3.692h5.3l-1.928,3.692,2.249,8.307Z" fill="#437795"/>
    </g>
    <path id="Trazado_40294" data-name="Trazado 40294" d="M63.539,2504.082H52.719a7.078,7.078,0,0,0,.046-.784,7.372,7.372,0,0,0-14.729,0,6.4,6.4,0,0,0,.048.783H28.628a4.141,4.141,0,0,0-4.228,4.048v6.008a4.142,4.142,0,0,0,4.228,4.049l34.912,0a4.141,4.141,0,0,0,4.227-4.049v-6.007A4.142,4.142,0,0,0,63.539,2504.082ZM45.4,2506.741a2.921,2.921,0,1,1,3.047-2.919,2.985,2.985,0,0,1-3.045,2.919Z" fill="#9b235c" stroke="#3d4451" stroke-miterlimit="10" stroke-width="2.081"/>
  </g>
</svg>
